<svg width="38" height="38" viewBox="0 0 38 38" fill="none" xmlns="http://www.w3.org/2000/svg">
<g id="image">
<path id="Vector" d="M29.6062 5.36362H8.39407C6.72048 5.36362 5.36377 6.72033 5.36377 8.39392V29.606C5.36377 31.2796 6.72048 32.6363 8.39407 32.6363H29.6062C31.2798 32.6363 32.6365 31.2796 32.6365 29.606V8.39392C32.6365 6.72033 31.2798 5.36362 29.6062 5.36362Z" stroke="#9E9E9E" stroke-width="2" stroke-linecap="round" stroke-linejoin="round"/>
<path id="Vector_2" d="M13.6973 15.9691C14.9525 15.9691 15.97 14.9516 15.97 13.6964C15.97 12.4412 14.9525 11.4236 13.6973 11.4236C12.4421 11.4236 11.4246 12.4412 11.4246 13.6964C11.4246 14.9516 12.4421 15.9691 13.6973 15.9691Z" stroke="#9E9E9E" stroke-width="2" stroke-linecap="round" stroke-linejoin="round"/>
<path id="Vector_3" d="M32.6365 23.5448L25.0607 15.9691L8.39404 32.6358" stroke="#9E9E9E" stroke-width="2" stroke-linecap="round" stroke-linejoin="round"/>
</g>
</svg>
